<svg width="32" height="32" viewBox="0 0 32 32" fill="none" xmlns="http://www.w3.org/2000/svg">
  <defs>
    <linearGradient id="faviconGradient" x1="0%" y1="0%" x2="100%" y2="100%">
      <stop offset="0%" stop-color="#FF6B35"/>
      <stop offset="50%" stop-color="#F7931E"/>
      <stop offset="100%" stop-color="#FFD23F"/>
    </linearGradient>
  </defs>
  
  <!-- Background -->
  <rect width="32" height="32" rx="6" fill="#0F0F23"/>
  
  <!-- Gaming Controller -->
  <path d="M 8 15 Q 8 13 10 13 L 22 13 Q 24 13 24 15 L 24 19 Q 24 21 22 21 L 10 21 Q 8 21 8 19 Z" 
        fill="url(#faviconGradient)"/>
  
  <!-- D-Pad -->
  <rect x="11" y="15.5" width="2" height="4" rx="0.5" fill="#0F0F23"/>
  <rect x="10" y="16.5" width="4" height="2" rx="0.5" fill="#0F0F23"/>
  
  <!-- Action Buttons -->
  <circle cx="19" cy="16" r="1" fill="#0F0F23"/>
  <circle cx="21" cy="16" r="1" fill="#0F0F23"/>
  <circle cx="20" cy="15" r="1" fill="#0F0F23"/>
  <circle cx="20" cy="17" r="1" fill="#0F0F23"/>
  
  <!-- Trophy -->
  <path d="M 14 8 L 18 8 L 18.5 9 L 13.5 9 Z" fill="#FFD700"/>
  <rect x="15.5" y="9" width="1" height="2" fill="#FFD700"/>
  <ellipse cx="16" cy="11.5" rx="2" ry="0.5" fill="#FFD700"/>
</svg>
